<svg width="100" height="100" viewBox="0 0 100 100" fill="none" xmlns="http://www.w3.org/2000/svg">
<path d="M20.8333 33.3337H79.1667M20.8333 33.3337C18.6232 33.3337 16.5036 32.4557 14.9408 30.8929C13.378 29.3301 12.5 27.2105 12.5 25.0003C12.5 22.7902 13.378 20.6706 14.9408 19.1078C16.5036 17.545 18.6232 16.667 20.8333 16.667H79.1667C81.3768 16.667 83.4964 17.545 85.0592 19.1078C86.622 20.6706 87.5 22.7902 87.5 25.0003C87.5 27.2105 86.622 29.3301 85.0592 30.8929C83.4964 32.4557 81.3768 33.3337 79.1667 33.3337M20.8333 33.3337V75.0003C20.8333 77.2105 21.7113 79.3301 23.2741 80.8929C24.8369 82.4557 26.9565 83.3337 29.1667 83.3337H70.8333C73.0435 83.3337 75.1631 82.4557 76.7259 80.8929C78.2887 79.3301 79.1667 77.2105 79.1667 75.0003V33.3337M41.6667 50.0003H58.3333" stroke="#3F3F46" stroke-width="2" stroke-linecap="round" stroke-linejoin="round"/>
</svg>
