<svg width="2073" height="1458" viewBox="0 0 2073 1458" fill="none" xmlns="http://www.w3.org/2000/svg">
<rect width="2073" height="1458" fill="white" fill-opacity="0.7"/>
<path d="M287 212.321C287 261.099 256.156 212.321 202.861 212.321C149.565 212.321 94 261.099 94 212.321C94 163.543 137.205 124 190.5 124C243.795 124 287 163.543 287 212.321Z" fill="#008F11" fill-opacity="0.7"/>
<path d="M492 598.321C492 647.099 461.156 598.321 407.861 598.321C354.565 598.321 299 647.099 299 598.321C299 549.543 342.205 510 395.5 510C448.795 510 492 549.543 492 598.321Z" fill="#FF8800" fill-opacity="0.7"/>
<path d="M942 336.5C942 446.681 866.56 536 773.5 536C680.44 536 605 446.681 605 336.5C605 226.319 680.44 137 773.5 137C866.56 137 495 536 942 336.5Z" fill="#BA095B" fill-opacity="0.7"/>
<path d="M1079 1056.5C1079 1203.13 1007.88 1056.5 885 1056.5C762.117 1056.5 634 1203.13 634 1056.5C634 909.868 733.617 791 856.5 791C979.383 791 1079 909.868 1079 1056.5Z" fill="#F9627B" fill-opacity="0.7"/>
<path d="M341.765 862C488.543 862 286.5 945.262 286.5 1089.13C286.5 1233 488.543 1383 341.765 1383C194.987 1383 110 1233 110 1089.13C110 945.262 194.987 862 341.765 862Z" fill="#00A39B" fill-opacity="0.7"/>
<path d="M1938 1268.32C1938 1317.1 1907.16 1268.32 1853.86 1268.32C1800.57 1268.32 1745 1317.1 1745 1268.32C1745 1219.54 1788.2 1180 1841.5 1180C1894.8 1180 1938 1219.54 1938 1268.32Z" fill="#008F11" fill-opacity="0.7"/>
<path d="M1876 170.321C1876 219.099 1845.16 170.321 1791.86 170.321C1738.57 170.321 1683 219.099 1683 170.321C1683 121.543 1726.2 82 1779.5 82C1832.8 82 1876 121.543 1876 170.321Z" fill="#0093B8" fill-opacity="0.7"/>
<path d="M1591 1209.5C1591 1319.68 1515.56 1409 1422.5 1409C1329.44 1409 1254 1319.68 1254 1209.5C1254 1099.32 1329.44 1010 1422.5 1010C1515.56 1010 1144 1409 1591 1209.5Z" fill="#0093B8" fill-opacity="0.7"/>
<path d="M1917 843.977C1917 902.621 1837.08 843.977 1763.03 843.977C1688.98 843.977 1572 929.018 1572 870.373C1572 811.729 1717.6 683 1791.66 683C1865.71 683 1917 785.333 1917 843.977Z" fill="#F9627B" fill-opacity="0.7"/>
<path d="M1683 499.765C1683 646.543 1599.74 499.765 1455.87 499.765C1312 499.765 1162 646.543 1162 499.765C1162 352.987 1278.63 234 1422.5 234C1566.37 234 1683 352.987 1683 499.765Z" fill="#21706D" fill-opacity="0.7"/>
</svg>
