<svg id="Layer_1" data-name="Layer 1" xmlns="http://www.w3.org/2000/svg" viewBox="0 0 5036.31 4222.9"><defs><style>.cls-1{fill:#00cfc2;}.cls-2{fill:#0095bb;}.cls-3{fill:#ff8000;}.cls-4{fill:#ff2b60;}.cls-5{fill:#cb005b;}.cls-6{fill:#85004a;}.cls-7{fill:#009100;}.cls-8{fill:#00a297;}.cls-9{fill:#dc0063;}.cls-10{fill:#00c600;}.cls-11{fill:#be005d;}.cls-12{fill:#ff809a;}.cls-13{fill:#ffa400;}.cls-14{fill:#00c9f1;}.cls-15{fill:#00baaf;}.cls-16{fill:#414042;}</style></defs><path class="cls-1" d="M2317.52,99.78A1165.56,1165.56,0,0,1,2486,81.16l36.71,1155.28-842.8-790.88A1177.77,1177.77,0,0,1,2317.52,99.78Z"/><path class="cls-2" d="M1560.93,580.78a1164.5,1164.5,0,0,1,105.94-132.26l842.86,791-1155.18,36.7a1177.82,1177.82,0,0,1,206.38-695.39Z"/><path class="cls-3" d="M1372.39,1455.4A1165.4,1165.4,0,0,1,1353.77,1287l1155.28-36.71-790.88,842.8a1177.77,1177.77,0,0,1-345.78-637.66Z"/><path class="cls-4" d="M1861.45,2208.34a1166.19,1166.19,0,0,1-132.26-105.93l790.95-842.87,36.71,1155.19a1177.75,1177.75,0,0,1-695.4-206.39Z"/><path class="cls-5" d="M2734.32,2392.59a1164,1164,0,0,1-168.42,18.61l-36.71-1155.28L3372,2046.81a1177.83,1177.83,0,0,1-637.66,345.78Z"/><path class="cls-6" d="M3481.87,1902.76A1164.42,1164.42,0,0,1,3375.94,2035l-842.86-790.95,1155.18-36.7a1177.75,1177.75,0,0,1-206.39,695.39Z"/><path class="cls-7" d="M3669.61,1034.38a1164,1164,0,0,1,18.61,168.42l-1155.28,36.71,790.89-842.79a1177.83,1177.83,0,0,1,345.78,637.66Z"/><path class="cls-8" d="M3187.25,288.75a1164.42,1164.42,0,0,1,132.26,105.93l-791,842.86L2491.86,82.36a1177.7,1177.7,0,0,1,695.39,206.39Z"/><path class="cls-9" d="M2764.09,1734.57,2573,1937.5a49.3,49.3,0,0,1-16.3,11.4l7.62,235.25c67.88-6.49,130.41-37,177.93-87.27l148.4-157.56,159.27-169.18-169.61-159Z"/><path class="cls-10" d="M3181.75,927.1a380.35,380.35,0,0,1,21.17,284.65l240.5-7.79a598.76,598.76,0,0,0,9.86-127c-3-98.59-29.66-190.79-73.6-272.21a617.77,617.77,0,0,0-211.14-227.14l-163.11,174A383.32,383.32,0,0,1,3181.75,927.1Z"/><path class="cls-11" d="M3262.79,1540.14c68.33-65.12,119.28-144.5,151.51-230.94a633.3,633.3,0,0,0,22.85-75.47l-245.26,8a382.92,382.92,0,0,1-42,75.42,388,388,0,0,1-51.51,58.59L2928.73,1555.8l-28.16,29.91,169.61,159,70.5-74.87Z"/><path class="cls-12" d="M2503.25,1937.62,2300.4,1746.55l-119.81-112.84-159,169.64,164.76,155.2,157.76,148.53a280,280,0,0,0,190.67,76.39L2527.23,1950A49.66,49.66,0,0,1,2503.25,1937.62Z"/><path class="cls-13" d="M2125.58,1579.93l-180.15-169.65a387.73,387.73,0,0,1-99.85-125l-245.56,8a634.86,634.86,0,0,0,26.08,69.61c37.32,84.36,92.94,160.54,165,221.45l129.74,122.18,79.23,74.63,159-169.63Z"/><path class="cls-14" d="M1805.59,1126.43a383.21,383.21,0,0,1,194.47-344.22L1825.92,619a617.86,617.86,0,0,0-195.58,238.27c-38.94,83.94-60.07,177.54-57.11,276.13a599.42,599.42,0,0,0,18.54,130.54l240.71-7.8A379.4,379.4,0,0,1,1805.59,1126.43Z"/><path class="cls-8" d="M2148.71,735c9.14-1,18.25-1.94,27.58-2.22,128.85-3.87,244.37,56.7,316.51,152.29l-10-310c-94.09-51.57-201.63-78.09-313.44-74.74-52.29,1.57-102.54,10.36-150.68,24.18a611.73,611.73,0,0,0-167.87,77.2L2028,767.91A380.43,380.43,0,0,1,2148.71,735Z"/><path class="cls-15" d="M2827.25,713.27c9.34-.28,18.49.15,27.67.56a380.22,380.22,0,0,1,121.74,25.32l166-177.15a611.77,611.77,0,0,0-170.55-66c-48.89-10.91-99.57-16.67-151.87-15.1-111.64,3.35-217.24,36.18-308,93.15l10,307.64C2588.74,783.36,2699.54,717.1,2827.25,713.27Z"/><path class="cls-16" d="M3729.46,1162.6a64.61,64.61,0,0,0-26.13-15.92q-4.2-49.23-12.44-97.85c-26.68-156.9-84-305-170.43-440.26A1196.64,1196.64,0,0,0,3376,424.84a64.88,64.88,0,0,0-91.49-85.8A1182.79,1182.79,0,0,0,3081,201a1197.26,1197.26,0,0,0-535.58-141,64.88,64.88,0,0,0-122.83,3.5,1194,1194,0,0,0-725,325A64.89,64.89,0,0,0,1613,478a1185.58,1185.58,0,0,0-185.26,297.88,1194.75,1194.75,0,0,0-97.5,437.75,64.88,64.88,0,0,0,2.6,122.64c2.75,37.66,7.28,75.16,13.59,112.25,26.68,156.9,84,305,170.42,440.25a1196.32,1196.32,0,0,0,139.39,178.43,64.89,64.89,0,0,0,85.6,81.82,1185.35,1185.35,0,0,0,424.71,235.14l-91.18,323.59H1954.33c-43.28,0-82.84,37.33-102.19,96.43l-25.55,78h1428.1l-25.54-78c-19.36-59.1-58.92-96.43-102.19-96.43h-80.52l-111.77-345.27a1199.07,1199.07,0,0,0,405.22-253.84,64.9,64.9,0,0,0,83.51-88.24,1189.49,1189.49,0,0,0,256.26-516A1196.7,1196.7,0,0,0,3707.25,1278c.08-3.06.13-6.12.18-9.18a64.91,64.91,0,0,0,22-106.24ZM3285.19,449.53a64.9,64.9,0,0,0,74.38-4.91,1167.72,1167.72,0,0,1,139.34,177.72c104,162.76,162.39,341.61,178.5,521.55a64.86,64.86,0,0,0-58.18,56.35L2763.54,1228c11.17-43.68,9.3-85.57-11.17-118.08a125,125,0,0,0-45.53-43.28Zm-780,1043a39,39,0,0,0,8.68,3.86l27.63,852.91a64.85,64.85,0,0,0-55.72,62.3A1169.41,1169.41,0,0,1,2237,2377.3l252.11-894.71C2495.06,1486.33,2500.47,1489.65,2505.22,1492.5Zm34.24,3a39.42,39.42,0,0,0,8.44-4.44c7.9-5.5,17.68-12.52,28.64-20.84l287.88,889.35a1156.15,1156.15,0,0,1-249.12,48.48,64.81,64.81,0,0,0-48.14-57.3Zm-8.95-1367a64.62,64.62,0,0,0,18.94-42.83c259.44,7.09,513.27,100.76,716.39,271a64.84,64.84,0,0,0,.56,75.46L2681.74,1056c-34.14-10.37-70.91-6.69-98.63,6.38-24.22,11.41-44,36.76-55.89,55.26l-31.46-971.06A64.47,64.47,0,0,0,2530.51,128.55ZM1892.33,268.44c164.62-105.19,345.74-163.66,527.78-179a64.86,64.86,0,0,0,50,56.47l31.52,973.13c-13.07-17.73-34.59-42.17-59.77-52.1-28.43-11.22-65.22-12.53-98.54-.09L1722.86,485.28a64.84,64.84,0,0,0-4.32-81.22A1169.09,1169.09,0,0,1,1892.33,268.44ZM1629.68,498a64.85,64.85,0,0,0,74.4,4.72L2319,1079a125,125,0,0,0-42.87,46.3c-18.33,33.76-17.48,75.69-3.51,118.55l-855,27.69a64.87,64.87,0,0,0-61.55-61.84C1364.88,951.64,1459.37,699.57,1629.68,498Zm87.74,1526a64.69,64.69,0,0,0-47.34,20.53A1168.5,1168.5,0,0,1,1538.43,1875c-106.76-167.09-165.45-351.13-179.69-535.9a64.89,64.89,0,0,0,54.76-41.85l868.75-28.14c14.75,33.55,36.79,66.8,63.24,96.29,7.51,8.37,15.38,16.48,23.46,24.31l-609.22,650A64.63,64.63,0,0,0,1717.42,2024Zm46.48,110.15a64.85,64.85,0,0,0,11.7-74l612.1-653.08c14.68,13,29.66,25.05,44.08,35.9l-258.26,916.54A1160.65,1160.65,0,0,1,1763.9,2134.18Zm1213.22,573.58h-833.2L2230.09,2402a1195.69,1195.69,0,0,0,260.17,35.3,64.88,64.88,0,0,0,122-3.25,1182.87,1182.87,0,0,0,260.06-50.12ZM3145,2228.92a1166.74,1166.74,0,0,1-218.21,109.26L2631.23,1425c9.39-8.48,18.86-17.49,28.19-26.93l653.33,612.34a64.86,64.86,0,0,0,5.54,83.33A1169.36,1169.36,0,0,1,3145,2228.92Zm262.38-229.25a64.86,64.86,0,0,0-75.69-6.5L2677,1379.54c7.49-8.27,14.77-16.79,21.66-25.56,24.49-31.14,44.32-65.75,56.87-100.18l865.53-28a64.83,64.83,0,0,0,60.71,47.57C3675.93,1536.51,3581,1794.33,3407.39,1999.67Z"/><path class="cls-2" d="M2990.26,3240.84h542.66a412.79,412.79,0,0,1,8,81.13,426.51,426.51,0,0,1-8,83.79H3184.45v224.78H3461.1a447.35,447.35,0,0,1,8,82.46,439.86,439.86,0,0,1-8,83.8H3184.45v400.34a594.57,594.57,0,0,1-194.19,0Z"/><path class="cls-2" d="M3947.9,3736.94q0-31.92-10.64-51.87a79.84,79.84,0,0,0-29.27-31.26q-18.63-11.28-45.88-15.29a420.32,420.32,0,0,0-60.52-4q-71.82,0-153,27.93-18.64-34.58-27.94-65.17t-9.31-73.16a707.15,707.15,0,0,1,117.05-29.26q58.51-9.28,109.06-9.31,138.32,0,216.13,66.51t77.81,212.8v399q-46.57,14.65-113,27.94t-150.3,13.3q-67.83,0-124.36-12t-97.09-39.9a187.79,187.79,0,0,1-62.51-71.83q-21.95-43.89-22-107.73t27.27-107.07a210.23,210.23,0,0,1,70.49-69.16q43.2-25.93,96.43-37.24a510.91,510.91,0,0,1,106.4-11.31q38.57,0,85.13,4Zm0,137q-16-2.66-34.59-4.66a315.63,315.63,0,0,0-33.25-2q-65.17,0-103.07,23.27t-37.91,75.15q0,34.61,14.63,53.2a87.09,87.09,0,0,0,35.25,27.27,144.32,144.32,0,0,0,43.89,10.64q23.25,2,40.56,2a241.94,241.94,0,0,0,39.9-3.32q20-3.31,34.59-6Z"/><path class="cls-2" d="M4599.91,3494.17q20-4,37.91-6a356.7,356.7,0,0,1,39.24-2,287.32,287.32,0,0,1,39.23,2.66q19.28,2.67,37.91,6.65,4,6.66,7.32,19.28t6,26.6q2.66,14,4.66,27.93c1.33,9.31,2.43,17.09,3.32,23.28q29.24-41.21,71.82-73.82t106.41-32.58q13.28,0,30.59,1.33c11.51.89,19.95,2.22,25.27,4a264.57,264.57,0,0,1,4,30.59q1.3,17.3,1.33,35.91,0,22.63-2,49.21a357.48,357.48,0,0,1-7.31,50.54,183.38,183.38,0,0,0-32.59-2.66h-21.94a310.55,310.55,0,0,0-50.55,4.66q-27.93,4.66-53.2,24.6t-41.89,59.86q-16.65,39.9-16.63,111.72v327.19a442.57,442.57,0,0,1-47.88,5.32q-23.94,1.3-46.55,1.33t-45.89-1.33q-23.28-1.35-48.55-5.32Z"/><path class="cls-2" d="M677.14,4008.27a533.19,533.19,0,0,1,28.59,76.48,547.71,547.71,0,0,1,16.63,79.14q-69.18,25.27-124.36,33.25t-119,8q-113.05,0-198.18-36.58t-143-102.41q-57.86-65.84-87.11-156.28T21.43,3713q0-106.39,30.59-197.51t88.45-157.61q57.85-66.49,142.31-103.74T475,3216.89q63.84,0,117.71,8t116.38,33.25a294,294,0,0,1-16,77.8q-13.32,37.91-29.26,76.48-46.58-16-82.47-22.61t-85.12-6.65q-127.68,0-196.18,83.13T231.57,3713q0,324.54,275.32,324.53,49.2,0,86.46-6.65T677.14,4008.27Z"/><path class="cls-2" d="M1163.94,3736.94q0-31.92-10.64-51.87a79.89,79.89,0,0,0-29.26-31.26q-18.64-11.28-45.89-15.29a420.22,420.22,0,0,0-60.52-4q-71.82,0-153,27.93-18.64-34.58-27.93-65.17t-9.31-73.15a705.84,705.84,0,0,1,117-29.27q58.51-9.28,109.06-9.31,138.32,0,216.13,66.51t77.81,212.8v399q-46.57,14.64-113,27.93t-150.3,13.3q-67.83,0-124.36-12t-97.09-39.9a187.72,187.72,0,0,1-62.51-71.83q-21.95-43.89-21.95-107.73t27.27-107.07A210.23,210.23,0,0,1,876,3797.46q43.21-25.93,96.43-37.24a511.59,511.59,0,0,1,106.4-11.31q38.57,0,85.13,4Zm0,137q-16-2.66-34.58-4.66a316,316,0,0,0-33.26-2q-65.17,0-103.07,23.27t-37.91,75.15q0,34.61,14.63,53.2a87.09,87.09,0,0,0,35.25,27.27,144,144,0,0,0,43.89,10.64q23.25,2,40.56,2a242.15,242.15,0,0,0,39.91-3.32q20-3.3,34.58-6Z"/><path class="cls-2" d="M1481.8,3509.5q20-4,37.91-6a356.52,356.52,0,0,1,39.23-2,287.46,287.46,0,0,1,39.24,2.67q19.26,2.67,37.91,6.64,4,6.68,7.31,19.29t6,26.6q2.64,14,4.65,27.93c1.33,9.31,2.43,17.09,3.33,23.28q29.24-41.22,71.82-73.82t106.4-32.59q13.29,0,30.59,1.33t25.28,4a265.06,265.06,0,0,1,4,30.6q1.3,17.29,1.33,35.91,0,22.62-2,49.21a357.48,357.48,0,0,1-7.31,50.54,183.38,183.38,0,0,0-32.59-2.66h-22a310.44,310.44,0,0,0-50.54,4.66q-27.93,4.67-53.2,24.6t-41.9,59.85q-16.63,39.9-16.62,111.73v327.19a442.57,442.57,0,0,1-47.88,5.32q-23.94,1.3-46.56,1.33t-45.88-1.33q-23.3-1.35-48.55-5.32Z"/><path class="cls-2" d="M2113.56,3903.2q5.31,79.8,55.87,115.71t133,35.91a511.44,511.44,0,0,0,92.44-8.64,524.45,524.45,0,0,0,89.78-24.61q14.61,26.63,25.27,63.84a328.25,328.25,0,0,1,12,79.81q-103.74,39.9-234.09,39.9-95.76,0-164.26-26.6t-111.72-73.82q-43.24-47.19-63.85-112.39T1927.36,3850q0-75.83,21.28-142.32T2011.82,3592q41.9-49.2,103.74-77.81t144.31-28.6q71.82,0,127.68,25.27t95.1,69.17q39.21,43.89,59.19,104.41t19.95,129.68q0,25.27-2,49.87t-4.65,39.24Zm270-131.68q-2.67-63.84-35.24-103.07t-91.11-39.24q-66.52,0-101.08,37.24t-41.24,105.07Z"/><circle class="cls-2" cx="4349.97" cy="3314.14" r="100.25"/><path class="cls-2" d="M4262.09,3494.17V4181.8a558.64,558.64,0,0,0,91.78,8,566.17,566.17,0,0,0,93.1-8V3494.17Z"/></svg>