<svg width="539" height="252" viewBox="0 0 539 252" fill="none" xmlns="http://www.w3.org/2000/svg">
<path d="M138.049 5.94362C141.363 5.33082 144.717 4.96012 148.085 4.83447L150.271 73.6515L100.068 26.5408C110.246 15.8505 123.537 8.64289 138.049 5.94362Z" fill="#00CFC2"/>
<path d="M92.9806 34.5957C94.89 31.8198 96.9991 29.1867 99.2912 26.7173L149.498 73.8351L80.6871 76.0212C80.3253 61.2643 84.6272 46.7691 92.9806 34.5987V34.5957Z" fill="#0095BB"/>
<path d="M81.7498 86.6944C81.1372 83.3821 80.7665 80.0295 80.6406 76.6633L149.458 74.4766L102.347 124.68C91.6562 114.501 84.4485 101.209 81.7498 86.6962V86.6944Z" fill="#FF8000"/>
<path d="M110.882 131.545C108.106 129.636 105.473 127.527 103.003 125.235L150.118 75.0276L152.305 143.839C137.548 144.201 123.052 139.899 110.882 131.545Z" fill="#FF2B60"/>
<path d="M162.876 142.521C159.564 143.133 156.211 143.504 152.844 143.629L150.657 74.812L200.861 121.923C190.682 132.614 177.39 139.822 162.877 142.521H162.876Z" fill="#CB005B"/>
<path d="M207.406 113.342C205.497 116.118 203.388 118.751 201.096 121.22L150.889 74.1048L219.7 71.9187C220.062 86.6758 215.76 101.171 207.406 113.341V113.342Z" fill="#85004A"/>
<path d="M218.589 61.6154C219.202 64.9281 219.573 68.2811 219.698 71.6477L150.881 73.8344L197.992 23.6316C208.683 33.8108 215.89 47.1026 218.589 61.6154Z" fill="#009100"/>
<path d="M189.856 17.2C192.632 19.1092 195.265 21.2181 197.735 23.51L150.617 73.717L148.434 4.90589C163.191 4.54377 177.686 8.84594 189.856 17.2Z" fill="#00A297"/>
<path d="M164.65 103.324L153.267 115.412C152.993 115.702 152.662 115.933 152.296 116.091L152.75 130.104C156.793 129.718 160.518 127.9 163.349 124.906L172.188 115.52L181.676 105.443L171.573 95.9714L164.65 103.324Z" fill="#DC0063"/>
<path d="M189.529 55.225C192.134 60.4989 192.587 66.5795 190.79 72.1808L205.116 71.7168C205.58 69.2232 205.777 66.6871 205.703 64.1517C205.524 58.279 203.936 52.7869 201.319 47.9369C198.345 42.4308 194.017 37.774 188.742 34.4067L179.026 44.7715C183.592 46.9914 187.287 50.6697 189.529 55.225Z" fill="#00C600"/>
<path d="M194.356 91.7423C198.426 87.8633 201.461 83.1348 203.381 77.9858C203.928 76.517 204.382 75.0156 204.742 73.4902L190.132 73.9668C189.471 75.5538 188.631 77.0609 187.631 78.4594C186.728 79.7228 185.7 80.8921 184.562 81.9494L174.457 92.6751L172.779 94.4568L182.883 103.928L187.082 99.4682L194.356 91.7423Z" fill="#BE005D"/>
<path d="M149.112 115.419L137.029 104.038L129.892 97.3159L120.421 107.421L130.235 116.666L139.633 125.513C142.705 128.414 146.765 130.04 150.99 130.064L150.541 116.157C150.005 116.047 149.511 115.792 149.112 115.419Z" fill="#FF809A"/>
<path d="M126.615 94.1123L115.884 84.0067C113.406 81.9652 111.38 79.4293 109.936 76.5608L95.3091 77.0373C95.7455 78.4486 96.2642 79.8332 96.8626 81.1838C99.0857 86.2089 102.399 90.7468 106.691 94.375L114.419 101.653L119.139 106.098L128.61 95.9941L126.615 94.1123Z" fill="#FFA400"/>
<path d="M107.554 67.0986C107.439 62.9508 108.457 58.85 110.498 55.2372C112.539 51.6245 115.526 48.6364 119.138 46.5943L108.765 36.8723C103.745 40.5431 99.7369 45.4261 97.115 51.0654C94.7955 56.0655 93.5368 61.641 93.7131 67.5138C93.7942 70.1385 94.1646 72.7462 94.8175 75.2897L109.156 74.8251C108.173 72.3635 107.631 69.7481 107.554 67.0986Z" fill="#00C9F1"/>
<path d="M127.993 43.7821C128.538 43.7226 129.08 43.6666 129.636 43.6499C137.311 43.4194 144.193 47.0274 148.49 52.7214L147.894 34.2555C142.289 31.1836 135.883 29.6039 129.223 29.8035C126.108 29.897 123.115 30.4206 120.248 31.2438C116.701 32.2615 113.329 33.8121 110.248 35.8424L120.803 45.7425C123.075 44.6967 125.505 44.0343 127.993 43.7821Z" fill="#00A297"/>
<path d="M168.412 42.4877C168.968 42.4711 169.513 42.4967 170.06 42.5211C172.544 42.6225 174.994 43.1321 177.312 44.0293L187.2 33.477C184.03 31.6649 180.605 30.3396 177.041 29.5455C174.128 28.8956 171.11 28.5525 167.994 28.646C161.344 28.8456 155.054 30.8012 149.647 34.1948L150.243 52.5201C154.204 46.6628 160.804 42.7159 168.412 42.4877Z" fill="#00BAAF"/>
<path d="M222.154 69.253C221.719 68.8168 221.185 68.4916 220.598 68.3047C220.431 66.3497 220.184 64.4068 219.857 62.476C218.267 53.1299 214.853 44.3079 209.705 36.2508C207.2 32.3307 204.318 28.6651 201.099 25.3065C201.504 24.556 201.649 23.6928 201.511 22.8514C201.374 22.01 200.963 21.2376 200.341 20.6544C199.719 20.0712 198.922 19.71 198.073 19.6271C197.225 19.5441 196.373 19.744 195.65 20.1956C191.905 17.041 187.843 14.2852 183.527 11.973C173.695 6.71833 162.769 3.84171 151.624 3.57395C151.343 2.81686 150.831 2.16688 150.162 1.7153C149.492 1.26373 148.698 1.03325 147.891 1.05626C147.084 1.07926 146.304 1.35458 145.661 1.84355C145.018 2.33252 144.545 3.01057 144.307 3.78244C128.124 5.11641 112.884 11.948 101.121 23.1418C100.385 22.7989 99.5601 22.6963 98.7628 22.8486C97.9655 23.0009 97.2363 23.4003 96.6788 23.9902C96.1212 24.5802 95.7635 25.3307 95.6564 26.1353C95.5493 26.94 95.6982 27.7579 96.0821 28.4731C91.5441 33.8078 87.8249 39.7879 85.0466 46.2171C81.4821 54.4644 79.5114 63.3121 79.2388 72.2927C78.4842 72.571 77.8353 73.0778 77.3824 73.7425C76.9295 74.4071 76.6952 75.1965 76.7123 76.0006C76.7293 76.8047 76.9968 77.5834 77.4775 78.2283C77.9581 78.8731 78.628 79.352 79.3937 79.5981C79.5575 81.8414 79.8273 84.0751 80.2032 86.2845C81.7925 95.6306 85.2069 104.453 90.3547 112.509C92.7801 116.306 95.5603 119.865 98.6578 123.138C98.4083 123.84 98.3674 124.6 98.5398 125.325C98.7122 126.05 99.0906 126.71 99.6295 127.225C100.168 127.74 100.845 128.089 101.577 128.228C102.309 128.368 103.066 128.292 103.757 128.011C111.133 134.376 119.747 139.145 129.056 142.018L123.624 161.294H116.414C113.836 161.294 111.48 163.517 110.327 167.038L108.805 171.684H193.873L192.352 167.038C191.199 163.517 188.842 161.294 186.265 161.294H181.468L174.811 140.727C183.79 137.358 191.999 132.216 198.948 125.606C199.673 125.911 200.474 125.988 201.243 125.826C202.013 125.664 202.715 125.271 203.255 124.7C203.796 124.129 204.149 123.406 204.268 122.629C204.388 121.852 204.267 121.057 203.923 120.35C211.453 111.51 216.695 100.955 219.188 89.6131C220.164 85.1803 220.714 80.6645 220.831 76.1271C220.836 75.9448 220.839 75.7625 220.842 75.5802C221.438 75.3442 221.966 74.9638 222.378 74.4731C222.79 73.9825 223.074 73.3971 223.204 72.7695C223.334 72.1419 223.306 71.4919 223.122 70.8778C222.939 70.2638 222.605 69.705 222.152 69.2518L222.154 69.253ZM195.69 26.7772C196.369 27.1897 197.159 27.3829 197.952 27.3305C198.744 27.2782 199.502 26.9829 200.121 26.4848C203.223 29.7371 206.003 33.2824 208.421 37.0711C214.616 46.7663 218.094 57.4199 219.054 68.1385C218.181 68.2217 217.362 68.5994 216.732 69.2093C216.103 69.8193 215.699 70.6254 215.588 71.4951L164.617 73.1487C165.282 70.5468 165.171 68.0515 163.951 66.115C163.282 65.0388 162.348 64.1514 161.239 63.5369L195.69 26.7772ZM149.228 88.9061C149.39 89.0035 149.564 89.0807 149.745 89.136L151.39 139.942C150.488 140.07 149.661 140.512 149.053 141.191C148.446 141.87 148.098 142.742 148.071 143.653C143.073 143.506 138.104 142.821 133.252 141.61L148.27 88.314C148.624 88.5367 148.946 88.7345 149.229 88.9043L149.228 88.9061ZM151.267 89.0848C151.445 89.0173 151.614 88.9285 151.77 88.8203C152.24 88.4927 152.823 88.0745 153.476 87.5789L170.624 140.555C165.799 142.059 160.822 143.028 155.785 143.443C155.718 142.647 155.407 141.892 154.893 141.281C154.38 140.669 153.689 140.232 152.917 140.03L151.267 89.0848ZM150.734 7.6561C151.416 6.97666 151.818 6.06641 151.862 5.10483C167.316 5.52717 182.436 11.1068 194.536 21.2476C194.072 21.9066 193.825 22.6944 193.831 23.5004C193.837 24.3065 194.095 25.0905 194.569 25.7426L159.744 62.9031C157.711 62.2854 155.52 62.5046 153.869 63.2831C152.426 63.9628 151.248 65.4728 150.54 66.5748L148.666 8.7313C149.45 8.59651 150.174 8.2212 150.736 7.6573L150.734 7.6561ZM112.721 15.9902C122.527 9.72429 133.316 6.24138 144.16 5.32761C144.243 6.12882 144.575 6.8838 145.11 7.48694C145.644 8.09007 146.353 8.51119 147.138 8.69139L149.015 66.6582C148.237 65.6021 146.955 64.1463 145.455 63.5548C143.762 62.8864 141.57 62.8084 139.585 63.5494L102.626 28.9068C103.142 28.192 103.397 27.3224 103.35 26.4424C103.304 25.5623 102.957 24.7248 102.369 24.0687C105.557 21.0558 109.024 18.351 112.721 15.9902ZM97.0757 29.6645C97.6957 30.1615 98.454 30.4552 99.2471 30.5055C100.04 30.5558 100.83 30.3603 101.507 29.9456L138.137 64.2731C137.064 64.959 136.184 65.9085 135.583 67.0311C134.491 69.0421 134.542 71.5398 135.374 74.0928L84.4438 75.7423C84.4001 74.7823 84.0003 73.873 83.3224 73.192C82.6445 72.5109 81.7372 72.1068 80.7774 72.0586C81.3022 56.6866 86.9307 41.6715 97.0757 29.6645ZM102.302 120.564C101.773 120.564 101.25 120.672 100.765 120.882C100.28 121.093 99.8432 121.401 99.4822 121.787C96.5639 118.669 93.9388 115.288 91.6401 111.689C85.2807 101.736 81.7847 90.7729 80.9365 79.7666C81.6594 79.6994 82.3488 79.4299 82.9257 78.989C83.5026 78.5482 83.9437 77.9537 84.1984 77.2737L135.948 75.5975C136.826 77.596 138.139 79.5766 139.715 81.3333C140.162 81.8318 140.631 82.3149 141.112 82.7813L104.822 121.5C104.122 120.896 103.227 120.563 102.302 120.564ZM105.071 127.126C105.629 126.553 105.995 125.822 106.12 125.033C106.245 124.243 106.122 123.434 105.768 122.718L142.229 83.8154C143.103 84.5898 143.996 85.3076 144.855 85.9539L129.471 140.55C120.511 137.777 112.21 133.21 105.071 127.128V127.126ZM177.339 161.292H127.708L132.841 143.081C137.914 144.349 143.111 145.054 148.338 145.184C148.628 145.924 149.139 146.556 149.801 146.995C150.464 147.435 151.245 147.659 152.04 147.638C152.834 147.617 153.603 147.351 154.241 146.877C154.879 146.403 155.355 145.744 155.605 144.99C160.865 144.578 166.061 143.576 171.097 142.004L177.339 161.292ZM187.339 132.771C183.246 135.389 178.889 137.57 174.341 139.279L156.735 84.8835C157.295 84.3783 157.859 83.8416 158.415 83.2793L197.332 119.755C196.793 120.489 196.531 121.389 196.592 122.297C196.652 123.205 197.031 124.063 197.662 124.719C194.481 127.721 191.025 130.417 187.339 132.771ZM202.969 119.115C202.353 118.585 201.586 118.262 200.777 118.192C199.968 118.123 199.157 118.31 198.46 118.728L159.462 82.1755C159.908 81.6829 160.342 81.1754 160.752 80.653C162.211 78.7981 163.392 76.7364 164.14 74.6855L215.697 73.0176C215.917 73.815 216.387 74.5206 217.038 75.0307C217.689 75.5408 218.487 75.8285 219.313 75.8513C218.965 91.5258 213.31 106.884 202.969 119.115Z" fill="#414042"/>
<path d="M417.846 51.4268H450.171C450.488 53.018 450.648 54.6368 450.647 56.2595C450.653 57.9348 450.494 59.6067 450.171 61.2506H429.413V74.6402H445.892C446.203 76.2592 446.362 77.9036 446.369 79.5521C446.37 81.2274 446.211 82.899 445.892 84.5439H429.413V108.391C425.583 109.025 421.675 109.025 417.846 108.391V51.4268Z" fill="#0095BB"/>
<path d="M474.89 80.9781C474.89 79.7105 474.679 78.6806 474.256 77.8883C473.855 77.1204 473.253 76.4766 472.513 76.0262C471.773 75.5783 470.862 75.2747 469.78 75.1154C468.585 74.9493 467.381 74.8697 466.175 74.8772C463.323 74.8772 460.285 75.4317 457.061 76.5409C456.321 75.1677 455.766 73.8737 455.397 72.6589C455.027 71.4441 454.842 69.9915 454.842 68.3009C457.112 67.5224 459.445 66.9393 461.814 66.558C464.138 66.1895 466.303 66.0046 468.311 66.0034C473.804 66.0034 478.095 67.324 481.185 69.9652C484.275 72.6065 485.82 76.8318 485.82 82.6412V106.409C483.971 106.99 481.727 107.545 479.089 108.073C476.451 108.601 473.467 108.865 470.136 108.865C467.442 108.865 464.973 108.627 462.728 108.15C460.483 107.674 458.555 106.882 456.945 105.774C455.357 104.691 454.074 103.217 453.221 101.495C452.349 99.7519 451.913 97.6129 451.911 95.0777C451.909 92.5425 452.45 90.4165 453.535 88.6998C454.588 87.0127 456.027 85.6005 457.734 84.5801C459.45 83.5504 461.364 82.811 463.478 82.3618C465.561 81.916 467.686 81.6902 469.816 81.6881C471.348 81.6881 473.038 81.7675 474.887 81.9264L474.89 80.9781ZM474.89 89.1388C474.255 89.0332 473.568 88.9406 472.83 88.8612C472.172 88.7867 471.511 88.7469 470.849 88.7421C468.261 88.7421 466.214 89.2041 464.709 90.1282C463.204 91.0523 462.452 92.5445 462.451 94.6047C462.451 95.9791 462.742 97.0355 463.323 97.7737C463.87 98.4881 464.593 99.0479 465.422 99.3981C466.255 99.7453 467.137 99.9591 468.037 100.032C468.96 100.111 469.765 100.151 470.453 100.151C471.249 100.151 472.044 100.085 472.83 99.9533C473.624 99.8218 474.311 99.7027 474.89 99.5959V89.1388Z" fill="#0095BB"/>
<path d="M513.729 66.5168C514.523 66.3579 515.275 66.2388 515.987 66.1594C516.763 66.0767 517.543 66.037 518.324 66.0402C519.106 66.0396 519.887 66.0926 520.661 66.1987C521.427 66.3047 522.179 66.4367 522.919 66.5948C523.078 66.8593 523.223 67.2421 523.355 67.7433C523.487 68.2444 523.606 68.7726 523.713 69.3278C523.818 69.8837 523.911 70.4383 523.99 70.9915C524.069 71.546 524.135 72.0095 524.188 72.3782C525.349 70.7417 526.775 69.2759 528.466 67.9809C530.157 66.6859 532.27 66.039 534.805 66.0402C535.332 66.0402 535.939 66.0666 536.627 66.1195C537.312 66.1725 537.815 66.2517 538.132 66.3577C538.247 66.96 538.326 67.5684 538.37 68.1799C538.422 68.8669 538.448 69.5799 538.45 70.319C538.45 71.2176 538.41 72.1947 538.33 73.2503C538.257 74.2629 538.112 75.269 537.895 76.2608C537.254 76.1503 536.604 76.0973 535.954 76.1024H534.647C533.637 76.1126 532.63 76.2054 531.636 76.3799C530.527 76.565 529.47 77.0535 528.467 77.8453C527.463 78.6372 526.631 79.8257 525.971 81.411C525.31 82.9955 524.98 85.2138 524.981 88.0659V107.556C524.037 107.713 523.084 107.819 522.129 107.873C521.178 107.924 520.254 107.951 519.356 107.952C518.458 107.953 517.547 107.927 516.622 107.873C515.698 107.819 514.734 107.713 513.73 107.556L513.729 66.5168Z" fill="#0095BB"/>
<path d="M280.059 97.1405C280.742 98.6133 281.312 100.136 281.762 101.696C282.208 103.241 282.539 104.817 282.753 106.41C280.005 107.414 277.536 108.074 275.345 108.391C273.153 108.708 270.791 108.867 268.256 108.868C263.767 108.868 259.832 108.141 256.451 106.689C253.071 105.236 250.231 103.202 247.933 100.588C245.635 97.9736 243.906 94.8706 242.744 91.279C241.583 87.6875 241.001 83.7785 241 79.552C241 75.3271 241.607 71.4054 242.822 67.7868C244.037 64.1683 245.793 61.0388 248.091 58.3984C250.388 55.758 253.214 53.6981 256.568 52.2189C259.922 50.7396 263.739 50 268.018 50C270.553 50 272.89 50.1588 275.03 50.4765C277.169 50.7942 279.48 51.4544 281.962 52.4572C281.856 54.0379 281.535 55.5969 281.009 57.0915C280.48 58.597 279.899 60.1155 279.266 61.6472C277.416 61.0118 275.779 60.5629 274.354 60.3004C272.928 60.0379 271.238 59.9059 269.283 59.9043C264.213 59.9043 260.318 61.5549 257.597 64.8561C254.877 68.1574 253.517 73.056 253.517 79.552C253.517 92.44 258.984 98.8838 269.918 98.8834C271.871 98.8834 273.588 98.7514 275.068 98.4873C276.547 98.2232 278.211 97.7743 280.059 97.1405Z" fill="#0095BB"/>
<path d="M309.056 80.9781C309.056 79.7105 308.845 78.6806 308.423 77.8883C308.022 77.1206 307.419 76.4768 306.68 76.0262C305.939 75.5783 305.028 75.2747 303.946 75.1154C302.752 74.9493 301.547 74.8697 300.341 74.8772C297.489 74.8772 294.451 75.4317 291.227 76.5409C290.487 75.1677 289.932 73.8737 289.564 72.6589C289.195 71.4441 289.01 69.9916 289.009 68.3015C291.278 67.5226 293.61 66.9393 295.978 66.558C298.302 66.1895 300.467 66.0046 302.475 66.0034C307.968 66.0034 312.259 67.324 315.349 69.9652C318.439 72.6065 319.984 76.8318 319.984 82.6412V106.409C318.135 106.99 315.891 107.545 313.253 108.072C310.615 108.6 307.631 108.864 304.3 108.865C301.606 108.865 299.137 108.626 296.892 108.15C294.647 107.673 292.719 106.881 291.109 105.773C289.52 104.69 288.238 103.217 287.385 101.494C286.513 99.7513 286.078 97.6123 286.078 95.0771C286.078 92.5419 286.619 90.4159 287.702 88.6992C288.756 87.013 290.197 85.602 291.905 84.5831C293.62 83.5534 295.535 82.8139 297.649 82.3648C299.732 81.9193 301.856 81.6935 303.987 81.6911C305.518 81.6911 307.209 81.7705 309.058 81.9294L309.056 80.9781ZM309.056 89.1388C308.421 89.0332 307.734 88.9406 306.997 88.8612C306.339 88.7867 305.677 88.7469 305.015 88.7421C302.427 88.7421 300.381 89.2041 298.876 90.1282C297.371 91.0523 296.618 92.5445 296.617 94.6047C296.617 95.9791 296.908 97.0355 297.489 97.7737C298.036 98.4881 298.76 99.0479 299.589 99.3981C300.421 99.7456 301.304 99.9595 302.203 100.032C303.126 100.111 303.932 100.151 304.619 100.151C305.416 100.151 306.211 100.085 306.997 99.9533C307.791 99.8222 308.477 99.7031 309.056 99.5959V89.1388Z" fill="#0095BB"/>
<path d="M327.991 67.4301C328.785 67.2712 329.538 67.1521 330.249 67.0727C331.025 66.9901 331.805 66.9503 332.586 66.9536C333.367 66.9531 334.148 67.0063 334.923 67.1126C335.688 67.2186 336.441 67.3505 337.181 67.5081C337.34 67.7734 337.485 68.1564 337.617 68.6572C337.748 69.158 337.867 69.6861 337.974 70.2417C338.079 70.7976 338.171 71.3522 338.251 71.9054C338.33 72.46 338.396 72.9234 338.449 73.2921C339.611 71.6552 341.037 70.1895 342.728 68.8949C344.418 67.6003 346.531 66.9532 349.066 66.9536C349.593 66.9536 350.201 66.98 350.888 67.0328C351.575 67.0856 352.077 67.165 352.394 67.2711C352.508 67.8735 352.588 68.4821 352.632 69.0938C352.683 69.7804 352.71 70.4935 352.711 71.2329C352.711 72.1312 352.671 73.1083 352.592 74.1642C352.519 75.1768 352.373 76.1829 352.156 77.1747C351.515 77.0642 350.866 77.0112 350.215 77.0163H348.905C347.895 77.0265 346.888 77.1193 345.894 77.2939C344.785 77.4793 343.729 77.9678 342.725 78.7592C341.722 79.5507 340.89 80.739 340.229 82.3243C339.569 83.9088 339.239 86.1273 339.239 88.9798V108.47C338.295 108.627 337.343 108.733 336.387 108.787C335.436 108.838 334.512 108.865 333.614 108.866C332.715 108.867 331.804 108.841 330.881 108.787C329.955 108.733 328.991 108.627 327.989 108.47L327.991 67.4301Z" fill="#0095BB"/>
<path d="M365.623 90.8818C365.834 94.0508 366.943 96.3483 368.951 97.7743C370.959 99.2004 373.599 99.9134 376.873 99.9134C378.72 99.9092 380.564 99.7369 382.38 99.3988C384.202 99.0696 385.992 98.579 387.728 97.9328C388.308 98.9903 388.81 100.258 389.233 101.736C389.666 103.285 389.906 104.882 389.948 106.49C385.828 108.074 381.18 108.866 376.004 108.866C372.201 108.866 368.939 108.338 366.219 107.282C363.499 106.226 361.28 104.76 359.564 102.885C357.847 101.011 356.579 98.7791 355.761 96.1899C354.942 93.6007 354.532 90.775 354.531 87.7128C354.531 84.7015 354.954 81.8756 355.799 79.2352C356.644 76.5948 357.898 74.2978 359.562 72.3444C361.226 70.3906 363.286 68.8456 365.742 67.7095C368.198 66.5733 371.063 66.0055 374.338 66.0059C377.19 66.0059 379.725 66.5076 381.944 67.5111C384.162 68.5146 386.05 69.8881 387.608 71.6314C389.166 73.3743 390.341 75.4475 391.134 77.8508C391.928 80.2542 392.324 82.8291 392.323 85.5755C392.323 86.5791 392.283 87.5693 392.203 88.5462C392.124 89.5231 392.032 90.3022 391.926 90.8836L365.623 90.8818ZM381.706 83.038C381.6 80.5028 380.9 78.4562 379.607 76.8983C378.313 75.3405 376.504 74.5613 374.18 74.5609C371.538 74.5609 369.531 75.3004 368.158 76.7792C366.786 78.2581 365.967 80.3443 365.702 83.038H381.706Z" fill="#0095BB"/>
<path d="M493.605 66.5168V107.477C495.412 107.786 497.24 107.946 499.073 107.954C500.931 107.948 502.786 107.789 504.618 107.477V66.5168H493.605Z" fill="#0095BB"/>
<path d="M498.972 61.9433C502.27 61.9433 504.943 59.2697 504.943 55.9716C504.943 52.6736 502.27 50 498.972 50C495.674 50 493 52.6736 493 55.9716C493 59.2697 495.674 61.9433 498.972 61.9433Z" fill="#0095BB"/>
</svg>
