<svg id="visual" viewBox="0 0 900 600" width="900" height="600" xmlns="http://www.w3.org/2000/svg" xmlns:xlink="http://www.w3.org/1999/xlink" version="1.1"><path d="M0 169L16.7 160C33.3 151 66.7 133 100 131C133.3 129 166.7 143 200 134C233.3 125 266.7 93 300 97C333.3 101 366.7 141 400 159C433.3 177 466.7 173 500 165C533.3 157 566.7 145 600 148C633.3 151 666.7 169 700 163C733.3 157 766.7 127 800 124C833.3 121 866.7 145 883.3 157L900 169L900 0L883.3 0C866.7 0 833.3 0 800 0C766.7 0 733.3 0 700 0C666.7 0 633.3 0 600 0C566.7 0 533.3 0 500 0C466.7 0 433.3 0 400 0C366.7 0 333.3 0 300 0C266.7 0 233.3 0 200 0C166.7 0 133.3 0 100 0C66.7 0 33.3 0 16.7 0L0 0Z" fill="#4cb0cf"></path><path d="M0 277L16.7 264C33.3 251 66.7 225 100 215C133.3 205 166.7 211 200 203C233.3 195 266.7 173 300 179C333.3 185 366.7 219 400 237C433.3 255 466.7 257 500 258C533.3 259 566.7 259 600 256C633.3 253 666.7 247 700 239C733.3 231 766.7 221 800 227C833.3 233 866.7 255 883.3 266L900 277L900 167L883.3 155C866.7 143 833.3 119 800 122C766.7 125 733.3 155 700 161C666.7 167 633.3 149 600 146C566.7 143 533.3 155 500 163C466.7 171 433.3 175 400 157C366.7 139 333.3 99 300 95C266.7 91 233.3 123 200 132C166.7 141 133.3 127 100 129C66.7 131 33.3 149 16.7 158L0 167Z" fill="#279dc0"></path><path d="M0 403L16.7 410C33.3 417 66.7 431 100 447C133.3 463 166.7 481 200 484C233.3 487 266.7 475 300 451C333.3 427 366.7 391 400 375C433.3 359 466.7 363 500 375C533.3 387 566.7 407 600 411C633.3 415 666.7 403 700 405C733.3 407 766.7 423 800 427C833.3 431 866.7 423 883.3 419L900 415L900 275L883.3 264C866.7 253 833.3 231 800 225C766.7 219 733.3 229 700 237C666.7 245 633.3 251 600 254C566.7 257 533.3 257 500 256C466.7 255 433.3 253 400 235C366.7 217 333.3 183 300 177C266.7 171 233.3 193 200 201C166.7 209 133.3 203 100 213C66.7 223 33.3 249 16.7 262L0 275Z" fill="#0086a7"></path><path d="M0 601L16.7 601C33.3 601 66.7 601 100 601C133.3 601 166.7 601 200 601C233.3 601 266.7 601 300 601C333.3 601 366.7 601 400 601C433.3 601 466.7 601 500 601C533.3 601 566.7 601 600 601C633.3 601 666.7 601 700 601C733.3 601 766.7 601 800 601C833.3 601 866.7 601 883.3 601L900 601L900 413L883.3 417C866.7 421 833.3 429 800 425C766.7 421 733.3 405 700 403C666.7 401 633.3 413 600 409C566.7 405 533.3 385 500 373C466.7 361 433.3 357 400 373C366.7 389 333.3 425 300 449C266.7 473 233.3 485 200 482C166.7 479 133.3 461 100 445C66.7 429 33.3 415 16.7 408L0 401Z" fill="#006c86"></path></svg>